<?xml version="1.0" encoding="UTF-8"?>
<svg xmlns="http://www.w3.org/2000/svg" xmlns:xlink="http://www.w3.org/1999/xlink" width="200px" height="396px" viewBox="0 0 200 396" version="1.1">
<g id="surface1">
<path style=" stroke:none;fill-rule:nonzero;fill:rgb(0%,62.352943%,27.450982%);fill-opacity:1;" d="M 154.039062 132.671875 C 154.375 132.671875 154.707031 132.671875 155.050781 132.671875 C 156.839844 141.550781 158.597656 150.402344 159.597656 159.410156 C 159.664062 160.003906 159.730469 160.601562 159.796875 161.214844 C 161.660156 182.015625 158.636719 203.722656 145.171875 220.386719 C 144.429688 221.25 143.683594 222.113281 142.929688 222.96875 C 142.585938 223.375 142.242188 223.78125 141.886719 224.195312 C 139.710938 226.71875 137.421875 228.929688 134.847656 231.042969 C 134.597656 231.253906 134.34375 231.46875 134.085938 231.6875 C 125.78125 238.6875 116.554688 243.871094 106.984375 248.945312 C 90.898438 257.507812 78.195312 268.570312 72.613281 286.359375 C 70.675781 292.820312 69.992188 299.132812 70.011719 305.859375 C 70.011719 306.234375 70.011719 306.609375 70.011719 306.996094 C 70.046875 317.277344 71.96875 326.746094 75.253906 336.472656 C 75.363281 336.808594 75.472656 337.144531 75.585938 337.488281 C 81.207031 354.363281 90.992188 369.609375 102.9375 382.675781 C 104.007812 383.855469 105.050781 385.054688 106.09375 386.257812 C 107.953125 388.355469 109.96875 390.171875 112.121094 391.964844 C 112.796875 392.542969 113.46875 393.121094 114.140625 393.699219 C 114.640625 394.125 115.140625 394.550781 115.65625 394.992188 C 115.488281 395.324219 115.324219 395.65625 115.152344 396 C 79.355469 389.5 43.777344 371.789062 21.832031 341.863281 C 21.214844 341.015625 20.582031 340.179688 19.949219 339.34375 C 16.410156 334.605469 13.425781 329.558594 10.605469 324.367188 C 10.351562 323.898438 10.351562 323.898438 10.089844 323.421875 C 4.96875 313.789062 1.941406 302.847656 0.503906 292.082031 C 0.429688 291.515625 0.355469 290.953125 0.277344 290.367188 C 0.125 288.917969 0.0429688 287.488281 0 286.027344 C -0.0117188 285.707031 -0.0195312 285.382812 -0.03125 285.054688 C -0.757812 259.097656 9.035156 235.886719 26.628906 216.988281 C 30.90625 212.488281 35.402344 208.484375 40.402344 204.808594 C 40.691406 204.59375 40.980469 204.378906 41.277344 204.160156 C 47.421875 199.585938 53.890625 195.785156 60.667969 192.230469 C 61.105469 192 61.539062 191.773438 61.988281 191.535156 C 70.460938 187.152344 79.140625 183.269531 87.929688 179.566406 C 101.445312 173.867188 101.445312 173.867188 114.644531 167.480469 C 115.058594 167.265625 115.472656 167.054688 115.898438 166.835938 C 123.609375 162.804688 130.800781 158.058594 137.375 152.347656 C 137.867188 151.921875 138.359375 151.5 138.863281 151.0625 C 144.238281 146.34375 148.632812 141.078125 152.4375 135.03125 C 152.949219 134.226562 153.492188 133.449219 154.039062 132.671875 Z M 154.039062 132.671875 "/>
<path style=" stroke:none;fill-rule:nonzero;fill:rgb(0%,46.666667%,21.176471%);fill-opacity:1;" d="M 144.949219 0 C 145.28125 0 145.617188 0 145.960938 0 C 153.070312 13.863281 158.578125 28.042969 161.617188 43.382812 C 161.722656 43.917969 161.828125 44.457031 161.9375 45.007812 C 164.671875 59.539062 165.320312 76.289062 162.121094 90.800781 C 161.96875 91.5 161.96875 91.5 161.816406 92.210938 C 156.617188 115.492188 143.820312 134.777344 123.660156 147.683594 C 112.125 154.941406 99.992188 160.871094 87.53125 166.355469 C 64.472656 176.503906 41.28125 186.988281 22.222656 203.800781 C 21.789062 204.179688 21.355469 204.554688 20.910156 204.941406 C 18.183594 207.347656 15.597656 209.875 13.054688 212.472656 C 12.414062 213.121094 11.765625 213.761719 11.109375 214.394531 C 10.945312 214.394531 10.777344 214.394531 10.605469 214.394531 C 12.117188 183.6875 37.03125 155.226562 57.703125 134.5 C 58.125 134.074219 58.550781 133.648438 58.988281 133.210938 C 61.464844 130.742188 64.003906 128.382812 66.667969 126.113281 C 67.316406 125.550781 67.964844 124.988281 68.613281 124.425781 C 69.246094 123.875 69.882812 123.324219 70.519531 122.773438 C 70.996094 122.359375 70.996094 122.359375 71.480469 121.9375 C 73.394531 120.28125 75.324219 118.648438 77.273438 117.035156 C 58.554688 126.445312 41.421875 138.835938 27.777344 154.867188 C 27.164062 155.574219 27.164062 155.574219 26.535156 156.296875 C 20.867188 162.851562 15.839844 169.808594 11.109375 177.066406 C 10.511719 177.980469 9.914062 178.894531 9.3125 179.808594 C 9.082031 180.160156 8.851562 180.515625 8.617188 180.878906 C 8.4375 181.117188 8.261719 181.359375 8.082031 181.605469 C 7.914062 181.605469 7.746094 181.605469 7.574219 181.605469 C 4.71875 160.367188 5.738281 137.582031 15.152344 118.042969 C 15.3125 117.703125 15.476562 117.363281 15.644531 117.015625 C 24.289062 99.269531 39.699219 86.582031 56.0625 76.171875 C 56.457031 75.921875 56.851562 75.671875 57.257812 75.414062 C 62.710938 71.960938 68.253906 68.671875 73.832031 65.421875 C 102.335938 48.8125 130.050781 30.566406 144.949219 0 Z M 144.949219 0 "/>
<path style=" stroke:none;fill-rule:nonzero;fill:rgb(1.568628%,12.941177%,6.27451%);fill-opacity:1;" d="M 194.332031 2.570312 C 197.277344 4.78125 199.132812 8.035156 199.859375 11.605469 C 200.453125 15.8125 199.632812 19.097656 197.601562 22.796875 C 194.96875 26.082031 191.683594 28.746094 187.375 29.257812 C 182.832031 29.566406 178.746094 28.5625 175.164062 25.667969 C 171.59375 21.992188 170.507812 18.175781 170.570312 13.199219 C 170.941406 8.882812 173.023438 5.355469 176.261719 2.523438 C 181.945312 -1.136719 188.617188 -0.953125 194.332031 2.570312 Z M 176.292969 7 C 174.097656 10.324219 173.125 13.195312 173.738281 17.152344 C 174.921875 20.875 176.882812 23.335938 180.304688 25.222656 C 183.1875 26.449219 185.871094 26.453125 188.890625 25.726562 C 192.339844 24.226562 194.855469 21.730469 196.402344 18.285156 C 197.421875 15.269531 196.957031 12.335938 195.800781 9.425781 C 195.519531 8.980469 195.238281 8.53125 194.949219 8.070312 C 194.6875 7.644531 194.429688 7.21875 194.160156 6.777344 C 191.75 4.371094 188.78125 2.898438 185.355469 2.710938 C 181.898438 2.90625 178.617188 4.414062 176.292969 7 Z M 176.292969 7 "/>
<path style=" stroke:none;fill-rule:nonzero;fill:rgb(1.568628%,12.941177%,6.27451%);fill-opacity:1;" d="M 180.304688 7.566406 C 181.585938 7.535156 182.867188 7.503906 184.1875 7.472656 C 184.585938 7.457031 184.984375 7.445312 185.394531 7.429688 C 187.683594 7.402344 189.109375 7.648438 190.910156 9.082031 C 192.054688 10.796875 192.023438 11.644531 191.730469 13.648438 C 191.234375 15.1875 190.226562 15.824219 188.890625 16.648438 C 189.109375 16.890625 189.328125 17.132812 189.550781 17.382812 C 189.832031 17.703125 190.113281 18.019531 190.402344 18.351562 C 190.683594 18.664062 190.964844 18.980469 191.257812 19.308594 C 191.917969 20.179688 191.917969 20.179688 191.917969 21.1875 C 190.625 21.441406 190.625 21.441406 188.890625 21.1875 C 187.898438 20.21875 187.089844 19.199219 186.265625 18.082031 C 185.15625 16.949219 184.382812 16.8125 182.828125 16.648438 C 182.828125 18.144531 182.828125 19.644531 182.828125 21.1875 C 181.996094 21.1875 181.160156 21.1875 180.304688 21.1875 C 180.304688 16.691406 180.304688 12.199219 180.304688 7.566406 Z M 182.828125 10.089844 C 182.828125 11.421875 182.828125 12.753906 182.828125 14.125 C 183.554688 14.152344 184.28125 14.171875 185.007812 14.1875 C 185.613281 14.207031 185.613281 14.207031 186.230469 14.222656 C 187.515625 14.203125 187.515625 14.203125 188.890625 13.117188 C 188.714844 11.867188 188.714844 11.867188 188.382812 10.59375 C 187.167969 9.988281 186.390625 10.039062 185.039062 10.058594 C 184.625 10.0625 184.210938 10.066406 183.785156 10.070312 C 183.46875 10.078125 183.152344 10.082031 182.828125 10.089844 Z M 182.828125 10.089844 "/>
</g>
</svg>
