<?xml version="1.0" encoding="UTF-8"?>
<svg id="Layer_2" data-name="Layer 2" xmlns="http://www.w3.org/2000/svg" viewBox="0 0 122.19 80.7">
  <defs>
    <style>
      .cls-1 {
        fill: #006228;
      }
    </style>
  </defs>
  <g id="Layer_1-2" data-name="Layer 1">
    <g>
      <g>
        <path class="cls-1" d="M118.54,62.01c-2.01,0-3.65-1.64-3.65-3.65s1.64-3.65,3.65-3.65,3.65,1.64,3.65,3.65-1.64,3.65-3.65,3.65ZM118.54,55.34c-1.66,0-3.02,1.35-3.02,3.02s1.35,3.02,3.02,3.02,3.02-1.35,3.02-3.02-1.35-3.02-3.02-3.02Z"/>
        <path class="cls-1" d="M117.28,56.66h1.49c.49,0,1.36.17,1.36,1.06,0,.62-.45.94-.97,1.02h0c.35.43.7.86,1.04,1.29h-.64l-1.01-1.24h-.69v1.24h-.57v-3.36ZM118.68,58.3c.44,0,.85-.14.85-.57s-.43-.58-.86-.58h-.82v1.15h.83Z"/>
      </g>
      <g>
        <path class="cls-1" d="M65.76,0c-4.91,10.02-18.44,7.47-16.71,22.01,0,0,3.15-5.76,8.96-8.09,0,0-7.55,5.38-8.64,12.11,4.48-4.88,10.12-5.43,14.7-8.84,5.16-4.15,4.59-11.87,1.68-17.19Z"/>
        <path class="cls-1" d="M66.85,16.13c-3.98,6.7-13.2,4.91-17.63,13.29-4.19,8.98,4.27,17.42,12.89,18.69-5.22-4.21-8.86-13.88-1.39-17.75,6.69-3.16,7.68-7.38,6.13-14.22Z"/>
      </g>
      <g>
        <path class="cls-1" d="M0,56.1h14.91v2.38H2.5v8.43h11.79v2.38H2.5v10.9H0v-24.08Z"/>
        <path class="cls-1" d="M19.17,56.1h2.5v24.08h-2.5v-24.08Z"/>
        <path class="cls-1" d="M25.99,73.64l2.32-.83c1.02,3.8,3.77,5.59,6.82,5.59,2.62,0,5.56-1.3,5.56-4.48,0-2.99-2.69-3.64-5-4.35l-2.22-.71c-2.38-.74-6.61-2.25-6.61-6.73s3.89-6.51,7.87-6.51,6.98,2.13,7.99,5.74l-2.25.93c-.86-2.65-2.96-4.38-5.96-4.38-2.81,0-5.03,1.57-5.03,4.01,0,3.06,3.4,4.14,4.97,4.63l2.38.77c2.65.86,6.54,1.88,6.54,6.27s-3.73,7.13-8.27,7.13c-3.7,0-7.72-1.85-9.11-7.07Z"/>
        <path class="cls-1" d="M46.37,68.17c0-7.25,5.4-12.56,12.1-12.56s12.07,5.46,12.07,12.56-5.37,12.53-12.1,12.53-12.07-5.25-12.07-12.53ZM67.85,68.17c0-5.9-4.26-10.22-9.35-10.22s-9.48,4.29-9.48,10.22,4.35,10.19,9.48,10.19,9.35-4.29,9.35-10.19Z"/>
        <path class="cls-1" d="M75.3,56.1h8.55c3.95,0,7.93,2.31,7.93,7.22,0,4.2-2.62,6.82-6.11,7.22v.03c2.13,3.21,4.29,6.39,6.42,9.6h-2.81l-6.33-9.48h-5.15v9.48h-2.5v-24.08ZM83.57,68.48c3.27,0,5.59-1.7,5.59-5.03s-2.5-5.09-5.77-5.09h-5.59v10.12h5.77Z"/>
        <path class="cls-1" d="M103.64,56.1h2.75l9.69,24.08h-2.65c-1.11-2.75-2.22-5.46-3.3-8.15h-10.31c-1.08,2.69-2.13,5.4-3.24,8.15h-2.62l9.69-24.08ZM109.19,69.65c-1.48-3.67-2.99-7.56-4.17-10.65h-.06c-.83,2.13-2.56,6.45-4.23,10.65h8.46Z"/>
      </g>
    </g>
  </g>
</svg>